<?xml version="1.0" encoding="utf-8"?>
<!-- Generator: Adobe Illustrator 26.2.1, SVG Export Plug-In . SVG Version: 6.00 Build 0)  -->
<svg version="1.1" id="Layer_1" xmlns="http://www.w3.org/2000/svg" xmlns:xlink="http://www.w3.org/1999/xlink" x="0px" y="0px"
	 viewBox="0 0 1920 1080" style="enable-background:new 0 0 1920 1080;" xml:space="preserve">
<style type="text/css">
	.st0{fill:#FBFBFB;}
	.st1{fill:#101111;}
	.st2{fill:#CAD4DB;}
	.st3{fill:#95A6B1;}
	.st4{fill:#627179;}
	.st5{fill:#DFE6EC;}
</style>
<g>
	<g>
		<path class="st0" d="M960.52,573.95c-11.74,0-23.48-0.04-35.22,0.04c-1.8,0.01-2.31-0.33-2.3-2.24
			c0.08-21.48,0.08-42.97,0.01-64.45c-0.01-1.8,0.33-2.3,2.25-2.3c23.48,0.08,46.96,0.07,70.45,0.01c1.8-0.01,2.31,0.33,2.3,2.24
			c-0.08,21.48-0.08,42.97-0.01,64.45c0.01,1.8-0.33,2.32-2.25,2.3C984.01,573.89,972.26,573.95,960.52,573.95z M964.47,569.33
			c9.14,0,9.15,0.01,16.01-6.23c0.84-0.77,1.71-1.39,2.83-1.63c8.28-1.79,11.83-11.51,9.8-18.44c-1.44-4.91-3.13-9.76-4.04-14.85
			c-0.92-5.09-4.4-8.55-9.28-10.11c-2.6-0.83-4.71-2.09-6.39-4.08c-4.13-4.9-9.73-6.22-15.63-5.8c-4.1,0.29-8.88,0.19-10.88,5.31
			c-0.39,1-1.64,0.96-2.54,1.32c-5.97,2.4-10.89,5.56-9.47,13.26c0.14,0.77-0.2,1.38-0.71,1.99c-4.01,4.82-5.41,10.53-5.96,16.66
			c-0.73,8.22,4.57,15.12,12.7,16.38c3.36,0.52,7.49-0.2,9.91,2.08C954.9,569,959.5,569.37,964.47,569.33z"/>
		<path class="st1" d="M964.47,569.33c-4.97,0.04-9.56-0.33-13.63-4.16c-2.42-2.28-6.55-1.56-9.91-2.08
			c-8.13-1.26-13.43-8.16-12.7-16.38c0.54-6.13,1.94-11.84,5.96-16.66c0.51-0.62,0.85-1.23,0.71-1.99
			c-1.43-7.69,3.5-10.85,9.47-13.26c0.9-0.36,2.14-0.32,2.54-1.32c2.01-5.12,6.78-5.02,10.88-5.31c5.9-0.42,11.5,0.9,15.63,5.8
			c1.68,1.99,3.78,3.25,6.39,4.08c4.88,1.56,8.36,5.02,9.28,10.11c0.92,5.1,2.61,9.94,4.04,14.85c2.03,6.94-1.52,16.65-9.8,18.44
			c-1.12,0.24-1.99,0.87-2.83,1.63C973.62,569.34,973.61,569.33,964.47,569.33z M978.07,519.7c-0.16-0.46-0.48-0.56-0.91-0.41
			c-0.64-0.12-1.28-0.24-1.93-0.36c-3.9-4.02-7.41-8.37-13.7-9.06c-6.21-0.68-11.53,1.37-13.05,5.79c-0.55,0.2-1.11,0.41-1.66,0.61
			c-2.16,0.08-4.17,0.53-5.57,2.39c0,0-0.12,0.11-0.12,0.11c-2.24,0.58-4.28,2.01-3.79,4.26c1.05,4.85-1.53,8.12-3.94,11.61
			c-0.17,0.28-0.34,0.57-0.5,0.85c-0.14,0.65-0.27,1.31-0.41,1.96c-1.5,0.67-1.39,1.86-1.03,3.14c0.05,0.42,0.1,0.84,0.16,1.27
			c-0.21,0.11-0.56,0.18-0.62,0.35c-2.6,6.98,2.04,18.19,10.54,17.76c2.78-0.14,5.6,0.75,8.41,1.18c1.23,0.19,2.4,0.39,3.17,1.59
			c1.64,2.55,4.13,3.3,7.03,3.21c3.45-0.1,6.91-0.05,10.36-0.18c2.03-0.08,4.1-0.61,5.22-2.37c2.14-3.38,5.45-4.55,8.95-5.89
			c5.6-2.14,8.41-10.51,5.41-14.96c-0.89-5.14-3.33-9.88-3.82-15.15c-0.12-1.29-0.68-2.9-2.28-3.53c-0.06-0.22-0.19-0.37-0.41-0.43
			c-0.29-1.23-0.89-2.06-2.34-1.75c0.1-0.21,0.06-0.39-0.14-0.52c-0.45-1.63-1.79-1.43-3.02-1.46l-0.12,0.15L978.07,519.7z"/>
		<path class="st2" d="M946.81,516.28c0.55-0.2,1.11-0.41,1.66-0.61c2.43,1.05,2.14-2.86,4.28-2.34c0.55,3.65,4.17,3.71,6.43,5.18
			c4.28,2.78,7.21,1.22,8.49-3.93c1.64,0.21,2.39,1.62,3.46,2.59c1.18,1.06,2.18,2.44,4.09,1.77c0.64,0.12,1.28,0.24,1.93,0.36
			c0.3,0.14,0.61,0.28,0.91,0.41l-0.11,0.16c0,0,0.12-0.15,0.12-0.15c-0.09,0.31-0.18,0.62-0.27,0.93
			c-2.51,1.75-5.83,1.96-8.11,4.17c-0.95,0.93-1.94,1.73-0.03,2.76c4.86,2.6,9.51,1.31,12.05-3.42c0.71-0.02,1.37-0.14,1.86-0.72
			c0.22,0.07,0.35,0.22,0.41,0.44c-0.78,3.64,1.01,7.03,1.03,10.63c0.01,1.83,0.61,3.67,1.91,5.4c1.97,2.62,0.18,5.26-1.4,7.38
			c-1.48,1.99-4.32,2.81-6.28,1.9c-4.1-1.9-8.43-0.97-12.56-1.86c-1.08-0.23-2.61-0.44-2.77,1.46c-0.15,1.67,0.47,2.94,2.09,3.47
			c0.79,0.26,1.7,0.16,2.56,0.24c1.21,0.11,2.9,0.06,3.04,1.42c0.16,1.58-1.35,2.61-2.83,2.9c-4.58,0.91-9.2,1.52-13.81,0.08
			c0,0,0,0,0,0c0.01-0.79-0.37-1.39-0.91-1.93c-4.72-4.65-9.45-9.27-16.8-9.14c-1.57,0.03-3.03-0.27-3.09-2.3
			c-0.09-2.82-0.14-5.63,0.92-8.34c0.71-1.83,1.75-2.62,3.63-1.51c-0.58,1.15-0.67,2.05,0.26,3.3c4.18,5.64,6.52,6.23,12.58,2.74
			c0.72-0.41,1.74-0.61,1.78-1.66c0.04-1.08-1.01-1.26-1.7-1.71c-3.35-2.14-7.1-2.55-10.94-2.59c1.22-2.19,4.63-1.32,5.57-4.02
			c-1.47-0.84-2.98-1.61-4.41-2.52c-3.45-2.18-3.51-3.83-0.33-6.68c0.3,0.51,0.49,1.32,0.92,1.49c3.48,1.32,7.19,1.13,10.78,1.1
			c1.85-0.01,2.26-1.51,0.37-2.93c-2.14-1.6-4.2-2.23-6.84-1.23c-1.68,0.63-3.22,1.95-5.22,1.56c-0.13-0.59-0.27-1.17-0.4-1.76
			c0,0,0.12-0.11,0.12-0.11C943.57,518.95,945.6,518.56,946.81,516.28z M970.43,543.47c3.71,0.83,7.54,0.13,10.37-3.83
			c1.49-2.08,1.7-3.3-0.62-5.08c-2.36-1.81-4.81-2.64-7.48-2.03c-5.08,1.17-10.89,1.15-13.34,7.3c-0.76,1.9-0.39,2.65,1.6,3.03
			C963.87,543.42,966.77,543.76,970.43,543.47z M955.1,525.14c0-0.01,0-0.02,0-0.03c-0.49,0-0.98-0.01-1.47,0
			c-1.21,0.03-2.63-0.14-2.97,1.44c-0.31,1.46,0.91,2.14,1.9,2.83c1.65,1.14,3.51,1.19,5.24,0.44c1.16-0.5,3.46,0.36,3.34-1.27
			c-0.13-1.7-1.87-3.06-3.85-3.39C956.58,525.04,955.83,525.14,955.1,525.14z M956.51,533.13c-0.52,0.4-1.83-0.38-1.91,0.88
			c-0.08,1.28,1.13,1.36,2.1,1.4c1,0.04,2.28-0.1,2.28-1.24C958.98,532.73,957.53,533.39,956.51,533.13z M966.21,521.49
			c-1.04,0.23-1.58,0.92-1.58,2.01c0,0.79,0.29,1.46,1.22,1.38c1.16-0.11,1.59-0.93,1.63-1.99
			C967.5,522.07,967.2,521.49,966.21,521.49z"/>
		<path class="st3" d="M954.96,556.89c4.61,1.44,9.23,0.82,13.81-0.08c1.47-0.29,2.99-1.31,2.83-2.9c-0.13-1.36-1.83-1.31-3.04-1.42
			c-0.86-0.07-1.76,0.02-2.56-0.24c-1.61-0.53-2.24-1.8-2.09-3.47c0.17-1.91,1.7-1.7,2.77-1.46c4.13,0.89,8.45-0.04,12.56,1.86
			c1.96,0.91,4.8,0.09,6.28-1.9c1.58-2.13,3.37-4.77,1.4-7.38c-1.3-1.72-1.9-3.56-1.91-5.4c-0.02-3.6-1.81-6.99-1.03-10.63
			c1.6,0.63,2.16,2.24,2.28,3.53c0.49,5.27,2.93,10.01,3.82,15.15c-0.61,5.51-1.68,11.02-7.93,12.7c-4.28,1.15-7.85,3.05-10.91,6.11
			c-0.01-1.32-0.15-2.51-1.98-2.14c-0.64,0.13-1.36,0.49-1.29,1.07c0.2,1.72,1.63,0.86,2.58,1.02c0.24,0.04,0.48,0.02,0.72,0.03
			c-2.43,2.81-5.69,1.34-8.55,1.47C958.06,563.03,956.47,561.61,954.96,556.89z"/>
		<path class="st4" d="M971.24,561.36c3.07-3.06,6.64-4.96,10.91-6.11c6.25-1.68,7.32-7.18,7.93-12.7c3.01,4.45,0.2,12.82-5.4,14.96
			c-3.5,1.34-6.81,2.51-8.95,5.89c-1.12,1.77-3.19,2.3-5.22,2.37c-3.45,0.13-6.91,0.08-10.36,0.18c-2.9,0.08-5.39-0.66-7.03-3.21
			c-0.77-1.2-1.95-1.41-3.17-1.59c-2.8-0.43-5.63-1.32-8.41-1.18c-8.5,0.42-13.14-10.79-10.54-17.76c0.06-0.17,0.41-0.24,0.62-0.35
			c0.11,0.72,0.29,1.44,0.32,2.17c0.25,6.46,0.83,7.05,7.33,7c2.44-0.02,4.8,0.05,6.67,2.5c-3.23,0.72-6.09,1.67-9.44,0.52
			c1.41,2.09,13.37,4.98,15,3.98c0.1-0.06,0.21-0.16,0.23-0.26c0.54-2.26,2.11-0.71,3.22-0.87c0,0,0,0,0,0
			c1.52,4.72,3.1,6.14,7.76,5.92c2.86-0.13,6.12,1.33,8.55-1.47L971.24,561.36z"/>
		<path class="st3" d="M954.95,556.89c-1.11,0.16-2.68-1.39-3.22,0.87c-0.02,0.1-0.14,0.2-0.23,0.26c-1.63,1.01-13.59-1.89-15-3.98
			c3.35,1.16,6.21,0.2,9.44-0.52c-1.87-2.46-4.23-2.52-6.67-2.5c-6.49,0.05-7.07-0.54-7.33-7c-0.03-0.73-0.21-1.44-0.32-2.17
			c-0.05-0.42-0.11-0.84-0.16-1.27c1.78-0.58,1.05-1.97,1.03-3.14c0.14-0.65,0.27-1.31,0.41-1.96c0.17-0.28,0.34-0.57,0.5-0.85
			c2.41-3.48,5-6.76,3.94-11.61c-0.49-2.25,1.55-3.68,3.79-4.26c0.13,0.59,0.26,1.17,0.4,1.76c0,0-0.01,0.01-0.01,0.01
			c-3.18,2.85-3.12,4.5,0.33,6.68c1.43,0.9,2.94,1.68,4.41,2.52c-0.95,2.7-4.36,1.83-5.57,4.02c-0.66-0.03-1.32-0.06-1.97-0.09
			c-1.89-1.12-2.92-0.32-3.63,1.51c-1.05,2.71-1,5.52-0.92,8.34c0.06,2.03,1.52,2.33,3.09,2.3c7.34-0.13,12.07,4.49,16.8,9.14
			C954.59,555.5,954.96,556.1,954.95,556.89z"/>
		<path class="st5" d="M981.72,524.16c-2.54,4.73-7.2,6.02-12.05,3.42c-1.91-1.02-0.92-1.83,0.03-2.76
			c2.28-2.22,5.59-2.42,8.11-4.17c0.97,0.94,2.1,0.92,3.29,0.52c0.19,0.14,0.24,0.31,0.14,0.52
			C980.97,522.6,980.83,523.48,981.72,524.16z"/>
		<path class="st3" d="M975.23,518.93c-1.91,0.67-2.91-0.71-4.09-1.77c-1.07-0.96-1.82-2.38-3.46-2.58c0,0-0.05,0-0.05,0
			c-0.13-0.96-0.62-1.42-1.63-1.17c-4.41-0.97-8.82-1.76-13.24-0.08c-2.14-0.52-1.85,3.39-4.28,2.34c1.52-4.43,6.85-6.47,13.05-5.8
			C967.82,510.56,971.33,514.92,975.23,518.93z"/>
		<path class="st3" d="M946.81,516.28c-1.22,2.28-3.25,2.67-5.57,2.39C942.64,516.81,944.65,516.36,946.81,516.28z"/>
		<path class="st3" d="M981.72,524.16c-0.89-0.68-0.76-1.56-0.49-2.47c1.45-0.31,2.05,0.52,2.34,1.75
			C983.09,524.02,982.43,524.14,981.72,524.16z"/>
		<path class="st3" d="M981.1,521.17c-1.19,0.4-2.31,0.42-3.29-0.52c0.09-0.31,0.18-0.62,0.27-0.93
			C979.31,519.74,980.65,519.54,981.1,521.17z"/>
		<path class="st4" d="M932.49,537.45c0.03,1.17,0.75,2.56-1.03,3.14C931.1,539.32,930.99,538.12,932.49,537.45z"/>
		<path class="st3" d="M978.07,519.7c-0.3-0.14-0.61-0.28-0.91-0.41C977.59,519.14,977.91,519.24,978.07,519.7z"/>
		<path class="st4" d="M933.4,534.64c-0.17,0.28-0.34,0.57-0.5,0.85C933.06,535.21,933.23,534.92,933.4,534.64z"/>
		<path class="st5" d="M970.43,543.47c-3.66,0.29-6.56-0.05-9.47-0.61c-2-0.38-2.36-1.13-1.6-3.03c2.45-6.15,8.27-6.14,13.34-7.3
			c2.67-0.61,5.12,0.21,7.48,2.03c2.32,1.78,2.11,3,0.62,5.08C977.97,543.6,974.14,544.3,970.43,543.47z"/>
		<path class="st5" d="M938.7,533.67c0.66,0.03,1.32,0.06,1.97,0.09c3.84,0.04,7.6,0.45,10.94,2.59c0.7,0.45,1.74,0.62,1.7,1.71
			c-0.04,1.05-1.06,1.25-1.78,1.66c-6.07,3.49-8.41,2.89-12.58-2.74C938.03,535.72,938.12,534.82,938.7,533.67z"/>
		<path class="st5" d="M952.76,513.33c4.42-1.68,8.83-0.89,13.24,0.08c0.17,0.91,0.71,1.31,1.63,1.17c0,0,0.05,0,0.05,0
			c-1.27,5.15-4.2,6.71-8.49,3.93C956.94,517.04,953.31,516.98,952.76,513.33z"/>
		<path class="st5" d="M941.52,520.53c2,0.39,3.54-0.93,5.22-1.56c2.65-1,4.7-0.38,6.84,1.23c1.89,1.42,1.48,2.92-0.37,2.93
			c-3.59,0.02-7.31,0.22-10.78-1.1c-0.43-0.16-0.62-0.97-0.92-1.49C941.51,520.54,941.52,520.53,941.52,520.53z"/>
		<path class="st3" d="M955.1,525.14c0.73,0,1.48-0.1,2.2,0.02c1.98,0.33,3.72,1.69,3.85,3.39c0.13,1.63-2.18,0.77-3.34,1.27
			c-1.73,0.75-3.59,0.7-5.24-0.44c-1-0.69-2.22-1.37-1.9-2.83c0.34-1.58,1.76-1.41,2.97-1.44c0.49-0.01,0.98,0,1.47,0
			C955.1,525.12,955.1,525.13,955.1,525.14z"/>
		<path class="st5" d="M956.51,533.13c1.02,0.26,2.47-0.4,2.47,1.04c0,1.14-1.27,1.28-2.28,1.24c-0.98-0.04-2.18-0.12-2.1-1.4
			C954.68,532.75,955.99,533.53,956.51,533.13z"/>
		<path class="st3" d="M966.21,521.49c1,0,1.3,0.59,1.27,1.4c-0.03,1.06-0.47,1.89-1.63,1.99c-0.93,0.09-1.22-0.58-1.22-1.38
			C964.62,522.41,965.16,521.71,966.21,521.49z"/>
		<path class="st4" d="M971.26,561.34c-0.24-0.01-0.49,0.01-0.72-0.03c-0.94-0.16-2.37,0.7-2.58-1.02
			c-0.07-0.58,0.66-0.94,1.29-1.07c1.84-0.37,1.98,0.82,1.98,2.14C971.24,561.36,971.26,561.34,971.26,561.34z"/>
		<path class="st2" d="M967.63,514.58c-0.92,0.13-1.46-0.26-1.63-1.17C967.01,513.16,967.5,513.62,967.63,514.58z"/>
	</g>
</g>
</svg>
