<?xml version="1.0" encoding="utf-8"?>
<!-- Generator: Adobe Illustrator 26.2.1, SVG Export Plug-In . SVG Version: 6.00 Build 0)  -->
<svg version="1.1" id="Layer_1" xmlns="http://www.w3.org/2000/svg" xmlns:xlink="http://www.w3.org/1999/xlink" x="0px" y="0px"
	 viewBox="0 0 1920 1080" style="enable-background:new 0 0 1920 1080;" xml:space="preserve">
<style type="text/css">
	.st0{fill:#FDFDFD;}
	.st1{fill:#0F0909;}
	.st2{fill:#FC0000;}
</style>
<g>
	<g>
		<path class="st0" d="M960.5,576.96c-11.72,0-23.45-0.04-35.17,0.04c-1.74,0.01-2.33-0.25-2.33-2.22c0.09-23.58,0.09-47.17,0-70.75
			c-0.01-1.87,0.52-2.04,2.14-2.03c23.57,0.06,47.14,0.06,70.72,0c1.62,0,2.15,0.15,2.14,2.03c-0.09,23.71-0.08,47.42-0.01,71.12
			c0.01,1.67-0.46,1.85-1.95,1.85C984.2,576.93,972.35,576.96,960.5,576.96z M928.27,530.77c0.07,1.1,0.02,2.85,0.33,4.54
			c0.26,1.43,0.91,2.8,1.44,4.18c5.27,13.83,16.17,22.68,27.62,30.97c2.98,2.16,6.04,1.11,8.75-1.11
			c5.12-4.2,10.39-8.28,14.65-13.35c6.25-7.45,11.66-15.34,12.07-25.69c0.65-16.54-14.25-29.1-30.98-21.68
			c-1.12,0.5-1.99,0.39-3.21,0.06c-4.22-1.17-8.39-2.81-12.99-1.69C935.11,509.66,928.1,518.72,928.27,530.77z"/>
		<path class="st1" d="M928.27,530.77c-0.16-12.05,6.84-21.11,17.7-23.77c4.6-1.13,8.77,0.51,12.99,1.69
			c1.21,0.34,2.08,0.44,3.21-0.06c16.72-7.43,31.63,5.14,30.98,21.68c-0.41,10.35-5.82,18.24-12.07,25.69
			c-4.26,5.07-9.53,9.16-14.65,13.35c-2.71,2.22-5.78,3.27-8.75,1.11c-11.45-8.29-22.35-17.15-27.62-30.97
			c-0.53-1.38-1.17-2.75-1.44-4.18C928.29,533.63,928.34,531.88,928.27,530.77z M989.03,528.75c-0.29-6.55-3.09-12.55-9.59-16.11
			c-5.78-3.17-11.7-2.54-17.14,1.12c-1.55,1.05-2.5,0.73-3.9-0.14c-5.21-3.23-10.63-3.73-16.1-0.65
			c-9.97,5.62-12.84,18.1-6.59,29.02c5.81,10.15,14.32,17.73,23.72,24.44c1.72,1.23,2.86,0.55,4.24-0.52
			c5.85-4.55,11.37-9.48,16.06-15.22C984.79,544.53,988.93,537.86,989.03,528.75z"/>
		<path class="st2" d="M989.03,528.75c-0.1,9.11-4.24,15.78-9.29,21.95c-4.69,5.74-10.21,10.67-16.06,15.22
			c-1.38,1.08-2.52,1.75-4.24,0.52c-9.4-6.71-17.9-14.29-23.72-24.44c-6.26-10.92-3.38-23.4,6.59-29.02
			c5.46-3.08,10.89-2.58,16.1,0.65c1.39,0.86,2.34,1.18,3.9,0.14c5.44-3.66,11.36-4.3,17.14-1.12
			C985.94,516.2,988.74,522.2,989.03,528.75z"/>
	</g>
</g>
</svg>
