<?xml version="1.0" encoding="utf-8"?>
<!-- Generator: Adobe Illustrator 26.2.1, SVG Export Plug-In . SVG Version: 6.00 Build 0)  -->
<svg version="1.1" id="Layer_1" xmlns="http://www.w3.org/2000/svg" xmlns:xlink="http://www.w3.org/1999/xlink" x="0px" y="0px"
	 viewBox="0 0 1920 1080" style="enable-background:new 0 0 1920 1080;" xml:space="preserve">
<style type="text/css">
	.st0{fill:#FCFCFC;}
	.st1{fill:#030303;}
</style>
<g>
	<g>
		<path class="st0" d="M960.5,512.05c11.74,0,23.48,0.05,35.23-0.05c1.86-0.02,2.28,0.42,2.27,2.27c-0.08,16.99-0.08,33.98,0,50.97
			c0.01,1.85-0.42,2.27-2.27,2.26c-23.48-0.07-46.97-0.07-70.45,0c-1.85,0.01-2.28-0.42-2.27-2.26c0.08-16.99,0.08-33.98,0-50.97
			c-0.01-1.85,0.42-2.28,2.27-2.27C937.02,512.1,948.76,512.05,960.5,512.05z M972.99,531.43c-1.19,0-1.79,0-2.4,0
			c-12.59,0-25.18,0.07-37.77-0.04c-3.32-0.03-4.8,1.15-4.62,4.52c0.16,2.82,0.02,5.65,0.03,8.48c0.02,4.31,0.49,4.75,4.98,4.75
			c11.6,0,23.21,0,34.81,0c4.72,0,4.72,0,3.48,4.68c-0.25,0.95-0.5,1.89-0.77,2.83c-0.42,1.44-0.95,3.03,0.68,3.96
			c1.49,0.85,2.78,0.04,3.92-1.1c5.48-5.49,10.96-10.99,16.51-16.42c1.93-1.89,1.74-3.57-0.06-5.35
			c-5.69-5.63-11.36-11.27-17.05-16.9c-0.88-0.87-1.84-1.91-3.19-1.16c-1.41,0.78-1.42,2.23-1.03,3.6
			C971.25,525.87,972.07,528.43,972.99,531.43z"/>
		<path class="st1" d="M972.99,531.43c-0.92-3-1.75-5.56-2.48-8.14c-0.39-1.37-0.38-2.81,1.03-3.6c1.35-0.75,2.31,0.29,3.19,1.16
			c5.69,5.63,11.36,11.28,17.05,16.9c1.8,1.78,1.99,3.46,0.06,5.35c-5.54,5.43-11.03,10.92-16.51,16.42
			c-1.13,1.14-2.43,1.95-3.92,1.1c-1.63-0.93-1.1-2.52-0.68-3.96c0.27-0.94,0.52-1.89,0.77-2.83c1.24-4.68,1.24-4.68-3.48-4.68
			c-11.6,0-23.21,0-34.81,0c-4.49,0-4.96-0.44-4.98-4.75c-0.01-2.83,0.12-5.66-0.03-8.48c-0.19-3.38,1.3-4.55,4.62-4.52
			c12.59,0.11,25.18,0.04,37.77,0.04C971.2,531.43,971.81,531.43,972.99,531.43z"/>
	</g>
</g>
</svg>
