<?xml version="1.0" encoding="utf-8"?>
<!-- Generator: Adobe Illustrator 26.2.1, SVG Export Plug-In . SVG Version: 6.00 Build 0)  -->
<svg version="1.1" id="Layer_1" xmlns="http://www.w3.org/2000/svg" xmlns:xlink="http://www.w3.org/1999/xlink" x="0px" y="0px"
	 viewBox="0 0 1920 1080" style="enable-background:new 0 0 1920 1080;" xml:space="preserve">
<style type="text/css">
	.st0{fill:#FCFCFC;}
	.st1{fill:#080808;}
	.st2{fill:#676867;}
</style>
<g>
	<g>
		<path class="st0" d="M960.5,576.96c-11.72,0-23.45-0.04-35.17,0.04c-1.74,0.01-2.33-0.25-2.33-2.22c0.09-23.58,0.09-47.17,0-70.75
			c-0.01-1.87,0.52-2.04,2.14-2.03c23.57,0.06,47.14,0.06,70.72,0c1.62,0,2.15,0.15,2.14,2.03c-0.09,23.71-0.08,47.42-0.01,71.12
			c0.01,1.67-0.46,1.85-1.95,1.85C984.2,576.93,972.35,576.96,960.5,576.96z M967.91,571.58c0,0.06,0,0.12,0,0.19
			c4.56,0,9.13,0,13.69,0c2.46,0,4.4-1.01,5.18-3.38c2.81-8.51,5.6-17.04,6.47-26.04c0.73-7.53,0.42-15.2-4.22-21.26
			c-3.19-4.16-8.29-7.25-12.87-9.68c-3.96-2.1-8.9-4.02-13.42-4.47c-5.53-0.55-11.45,0.54-16.89,2.03
			c-5.92,1.62-7.18,7.23-7.94,12.6c-0.27,1.92-0.76,3.14-2.72,4.23c-6.52,3.63-8.43,13.27-4.32,19.58
			c3.58,5.5,7.95,10.31,12.47,15.01c1.75,1.81,4.27,3.35,4.51,6.04c0.37,4.15,3.04,5.03,6.34,5.11
			C958.77,571.67,963.34,571.58,967.91,571.58z"/>
		<path class="st1" d="M967.91,571.58c-4.57,0-9.14,0.09-13.71-0.03c-3.31-0.09-5.97-0.96-6.34-5.11c-0.24-2.7-2.76-4.23-4.51-6.04
			c-4.53-4.7-8.89-9.51-12.47-15.01c-4.11-6.3-2.2-15.95,4.32-19.58c1.96-1.09,2.45-2.31,2.72-4.23c0.76-5.38,2.03-10.98,7.94-12.6
			c5.44-1.49,11.36-2.58,16.89-2.03c4.53,0.45,9.47,2.37,13.42,4.47c4.58,2.43,9.68,5.52,12.87,9.68
			c4.64,6.05,4.94,13.73,4.22,21.26c-0.87,9-3.66,17.53-6.47,26.04c-0.78,2.37-2.72,3.38-5.18,3.38c-4.56,0-9.13,0-13.69,0
			C967.91,571.7,967.91,571.64,967.91,571.58z M941.79,531.55c-1.56-2.25-2.98-2.68-4.6-1.74c-3.28,1.9-4.99,8.84-3.04,12.11
			c4.35,7.29,10.37,13.17,16.16,19.24c1,1.04,2.42,1.89,2.31,3.62c-0.13,2.08,1.24,2,2.67,2.03c6.79,0.14,13.58,0.35,20.37,0.46
			c6.22,0.1,6.64,0.18,8.45-5.59c3.54-11.29,7.2-22.64,2.96-34.71c-1-2.86-2.46-4.78-5.29-5.57c-2.12-0.6-3.66-1.67-4.84-3.65
			c-1.52-2.54-3.85-3.89-6.92-2.68c-1.71,0.68-2.65,0-3.75-1.28c-2.45-2.85-5.52-3.6-8.99-1.86c-1.35,0.68-2.68,1.04-4.26,0.83
			c-6.06-0.81-8.57,1.03-10.15,6.91C941.95,523.19,942.28,526.79,941.79,531.55z"/>
		<path class="st2" d="M941.79,531.55c0.49-4.76,0.15-8.35,1.1-11.87c1.58-5.88,4.08-7.72,10.15-6.91c1.58,0.21,2.9-0.15,4.26-0.83
			c3.47-1.74,6.53-0.99,8.99,1.86c1.1,1.28,2.04,1.95,3.75,1.28c3.06-1.21,5.4,0.14,6.92,2.68c1.18,1.97,2.71,3.05,4.84,3.65
			c2.83,0.79,4.28,2.71,5.29,5.57c4.24,12.07,0.58,23.42-2.96,34.71c-1.81,5.77-2.23,5.68-8.45,5.59
			c-6.79-0.11-13.58-0.32-20.37-0.46c-1.43-0.03-2.8,0.05-2.67-2.03c0.11-1.73-1.31-2.57-2.31-3.62
			c-5.79-6.07-11.81-11.95-16.16-19.24c-1.95-3.27-0.24-10.21,3.04-12.11C938.81,528.86,940.23,529.3,941.79,531.55z"/>
	</g>
</g>
</svg>
